<?xml version="1.0" encoding="utf-8"?><!-- Uploaded to: SVG Repo, www.svgrepo.com, Generator: SVG Repo Mixer Tools -->
<svg version="1.1" id="Uploaded to svgrepo.com" xmlns="http://www.w3.org/2000/svg" xmlns:xlink="http://www.w3.org/1999/xlink" 
	 width="800px" height="800px" viewBox="0 0 32 32" xml:space="preserve">
<style type="text/css">
	.feather_een{fill:#0B1719;}
</style>
<path class="feather_een" d="M6,11.5v8C6,19.776,5.776,20,5.5,20S5,19.776,5,19.5v-8C5,11.224,5.224,11,5.5,11S6,11.224,6,11.5z
	 M7.5,9C7.224,9,7,9.224,7,9.5v12C7,21.776,7.224,22,7.5,22S8,21.776,8,21.5v-12C8,9.224,7.776,9,7.5,9z M13.5,10
	c-0.276,0-0.5,0.224-0.5,0.5v10c0,0.276,0.224,0.5,0.5,0.5s0.5-0.224,0.5-0.5v-10C14,10.224,13.776,10,13.5,10z M11.5,8
	C11.224,8,11,8.224,11,8.5v14c0,0.276,0.224,0.5,0.5,0.5s0.5-0.224,0.5-0.5v-14C12,8.224,11.776,8,11.5,8z M15.5,8
	C15.224,8,15,8.224,15,8.5v14c0,0.276,0.224,0.5,0.5,0.5s0.5-0.224,0.5-0.5v-14C16,8.224,15.776,8,15.5,8z M19.5,7
	C19.224,7,19,7.224,19,7.5v16c0,0.276,0.224,0.5,0.5,0.5s0.5-0.224,0.5-0.5v-16C20,7.224,19.776,7,19.5,7z M21.5,10
	c-0.276,0-0.5,0.224-0.5,0.5v10c0,0.276,0.224,0.5,0.5,0.5s0.5-0.224,0.5-0.5v-10C22,10.224,21.776,10,21.5,10z M23.5,13
	c-0.276,0-0.5,0.224-0.5,0.5v4c0,0.276,0.224,0.5,0.5,0.5s0.5-0.224,0.5-0.5v-4C24,13.224,23.776,13,23.5,13z M25.5,12
	c-0.276,0-0.5,0.224-0.5,0.5v6c0,0.276,0.224,0.5,0.5,0.5s0.5-0.224,0.5-0.5v-6C26,12.224,25.776,12,25.5,12z M27.5,10
	c-0.276,0-0.5,0.224-0.5,0.5v10c0,0.276,0.224,0.5,0.5,0.5s0.5-0.224,0.5-0.5v-10C28,10.224,27.776,10,27.5,10z M29.5,12
	c-0.276,0-0.5,0.224-0.5,0.5v6c0,0.276,0.224,0.5,0.5,0.5s0.5-0.224,0.5-0.5v-6C30,12.224,29.776,12,29.5,12z M31.5,14
	c-0.276,0-0.5,0.224-0.5,0.5v2c0,0.276,0.224,0.5,0.5,0.5s0.5-0.224,0.5-0.5v-2C32,14.224,31.776,14,31.5,14z M9.5,7
	C9.224,7,9,7.224,9,7.5v16C9,23.776,9.224,24,9.5,24s0.5-0.224,0.5-0.5v-16C10,7.224,9.776,7,9.5,7z M17.5,5
	C17.224,5,17,5.224,17,5.5v20c0,0.276,0.224,0.5,0.5,0.5s0.5-0.224,0.5-0.5v-20C18,5.224,17.776,5,17.5,5z M3.5,13
	C3.224,13,3,13.224,3,13.5v4C3,17.776,3.224,18,3.5,18S4,17.776,4,17.5v-4C4,13.224,3.776,13,3.5,13z M1.5,14
	C1.224,14,1,14.224,1,14.5v2C1,16.776,1.224,17,1.5,17S2,16.776,2,16.5v-2C2,14.224,1.776,14,1.5,14z"/>
</svg>